<svg width="74" height="36" viewBox="0 0 74 36" fill="none" xmlns="http://www.w3.org/2000/svg">
<path d="M58.4425 1.04883L30.5683 30.509C28.0202 33.0496 24.6892 34.8051 20.9672 35.3823C20.9672 35.3823 19.1906 35.5902 18.2744 35.5902C17.6122 35.5902 15.3247 35.3446 15 35.2828L42.3694 6.88798C45.1632 3.62408 49.1436 1.40822 53.6416 0.880815C53.6416 0.880815 53.6423 0.880815 53.6431 0.880815C54.2858 0.880815 54.9383 0.794922 55.6005 0.794922C55.9833 0.794922 56.363 0.81828 56.7397 0.843897C56.751 0.844651 56.7608 0.847664 56.7721 0.848418C57.3372 0.885336 57.8932 0.95842 58.4425 1.04883Z" fill="#009C39"/>
<path d="M61.3976 1.80664L55.0664 8.49868C55.2171 8.49114 55.3693 8.48738 55.5215 8.48738C60.8528 8.48738 65.1746 12.8091 65.1746 18.1404C65.1746 23.4718 60.8528 27.7942 55.5215 27.7942C53.4292 27.7942 51.5479 27.1252 49.9679 25.9935C49.9009 25.9461 49.8338 25.8971 49.7683 25.8466C48.8822 25.1851 44.1574 20.0278 44.1574 20.0278L38.8125 25.7705C38.8125 25.7705 41.6206 28.9447 41.7871 29.1459C44.9809 33.0148 50.1909 35.6458 55.5991 35.6458C65.2175 35.6458 73.0148 27.8492 73.0148 18.2308C73.0133 10.6475 68.165 4.19429 61.3976 1.80664Z" fill="#0B88F4"/>
<path d="M33.6053 8.99303C32.1414 7.20663 28.4736 3.8689 26.416 2.77943C26.37 2.75381 26.3233 2.7297 26.2774 2.70634C23.8807 1.46392 21.1593 0.761719 18.2736 0.761719C17.2866 0.761719 16.3184 0.843844 15.3759 1.00207C7.13778 2.38161 0.859375 9.5453 0.859375 18.1759C0.859375 25.5566 5.45008 31.8652 11.9312 34.3997C13.1351 33.152 15.507 30.6936 18.3587 27.7371C18.3045 27.7378 18.2495 27.7386 18.1952 27.7386C12.8639 27.7386 8.54143 23.4161 8.54143 18.0848C8.54143 12.7534 12.8639 8.43172 18.1952 8.43172C20.83 8.43172 23.2192 9.48729 24.9611 11.1999C25.1954 11.4312 29.5074 15.9382 29.53 15.9623C29.5616 15.9955 29.5782 16.0136 29.5782 16.0136C31.559 13.9748 33.4245 12.0882 34.963 10.4931C34.963 10.4924 33.6272 9.0194 33.6053 8.99303Z" fill="#D10016"/>
</svg>
